<mxfile host="app.diagrams.net" modified="2021-01-23T22:48:31.359Z" agent="5.0 (Macintosh; Intel Mac OS X 11_1_0) AppleWebKit/537.36 (KHTML, like Gecko) Chrome/88.0.4324.96 Safari/537.36" etag="xQ84C2YU0d9bY3vLNyG6" version="14.2.7" type="github">
  <diagram id="4Q5GL8r66vRL9hEDbqhw" name="Page-1">
    <mxGraphModel dx="946" dy="521" grid="1" gridSize="10" guides="1" tooltips="1" connect="1" arrows="1" fold="1" page="1" pageScale="1" pageWidth="850" pageHeight="1100" math="0" shadow="0">
      <root>
        <mxCell id="0" />
        <mxCell id="1" parent="0" />
        <mxCell id="DRK7YsJV2PUh-7s9Fltz-1" value="Action Creator" style="rounded=0;whiteSpace=wrap;html=1;" vertex="1" parent="1">
          <mxGeometry x="270" y="70" width="120" height="60" as="geometry" />
        </mxCell>
        <mxCell id="DRK7YsJV2PUh-7s9Fltz-2" value="To change the state of our app &lt;br&gt;we call action creator" style="text;html=1;align=center;verticalAlign=middle;resizable=0;points=[];autosize=1;" vertex="1" parent="1">
          <mxGeometry x="90" y="65" width="180" height="30" as="geometry" />
        </mxCell>
        <mxCell id="DRK7YsJV2PUh-7s9Fltz-4" value="" style="endArrow=classic;html=1;exitX=1;exitY=0.5;exitDx=0;exitDy=0;" edge="1" parent="1" source="DRK7YsJV2PUh-7s9Fltz-1">
          <mxGeometry width="50" height="50" relative="1" as="geometry">
            <mxPoint x="410" y="110" as="sourcePoint" />
            <mxPoint x="470" y="100" as="targetPoint" />
          </mxGeometry>
        </mxCell>
        <mxCell id="DRK7YsJV2PUh-7s9Fltz-5" value="Action" style="rounded=0;whiteSpace=wrap;html=1;" vertex="1" parent="1">
          <mxGeometry x="490" y="80" width="120" height="60" as="geometry" />
        </mxCell>
        <mxCell id="DRK7YsJV2PUh-7s9Fltz-6" value="Produces" style="text;html=1;align=center;verticalAlign=middle;resizable=0;points=[];autosize=1;" vertex="1" parent="1">
          <mxGeometry x="385" y="120" width="70" height="20" as="geometry" />
        </mxCell>
        <mxCell id="DRK7YsJV2PUh-7s9Fltz-8" value="" style="endArrow=classic;html=1;" edge="1" parent="1" source="DRK7YsJV2PUh-7s9Fltz-5">
          <mxGeometry width="50" height="50" relative="1" as="geometry">
            <mxPoint x="400" y="290" as="sourcePoint" />
            <mxPoint x="550" y="260" as="targetPoint" />
          </mxGeometry>
        </mxCell>
        <mxCell id="DRK7YsJV2PUh-7s9Fltz-9" value="Dispatch" style="rounded=0;whiteSpace=wrap;html=1;" vertex="1" parent="1">
          <mxGeometry x="500" y="260" width="120" height="60" as="geometry" />
        </mxCell>
        <mxCell id="DRK7YsJV2PUh-7s9Fltz-10" value="Reducers" style="rounded=0;whiteSpace=wrap;html=1;" vertex="1" parent="1">
          <mxGeometry x="320" y="390" width="120" height="60" as="geometry" />
        </mxCell>
        <mxCell id="DRK7YsJV2PUh-7s9Fltz-11" value="" style="endArrow=classic;html=1;" edge="1" parent="1">
          <mxGeometry width="50" height="50" relative="1" as="geometry">
            <mxPoint x="550" y="330" as="sourcePoint" />
            <mxPoint x="450" y="430" as="targetPoint" />
          </mxGeometry>
        </mxCell>
        <mxCell id="DRK7YsJV2PUh-7s9Fltz-12" value="state" style="rounded=0;whiteSpace=wrap;html=1;" vertex="1" parent="1">
          <mxGeometry x="140" y="230" width="120" height="60" as="geometry" />
        </mxCell>
        <mxCell id="DRK7YsJV2PUh-7s9Fltz-13" value="" style="endArrow=classic;html=1;entryX=0.417;entryY=1.05;entryDx=0;entryDy=0;entryPerimeter=0;" edge="1" parent="1" target="DRK7YsJV2PUh-7s9Fltz-12">
          <mxGeometry width="50" height="50" relative="1" as="geometry">
            <mxPoint x="310" y="430" as="sourcePoint" />
            <mxPoint x="160" y="310" as="targetPoint" />
          </mxGeometry>
        </mxCell>
      </root>
    </mxGraphModel>
  </diagram>
</mxfile>
